<svg width="185" height="40" viewBox="0 0 185 40" fill="none" xmlns="http://www.w3.org/2000/svg">
<g clip-path="url(#clip0_3204_896)">
<rect width="40" height="40" rx="12" fill="#FEDE30"/>
<rect width="40" height="40" fill="url(#paint0_linear_3204_896)"/>
<path fill-rule="evenodd" clip-rule="evenodd" d="M20.919 17.383L29.1686 9.13346L27.4008 7.36569L21.2851 13.4814V2.5H18.7851V13.4814L12.6695 7.36569L10.9017 9.13346L19.1513 17.383L20.0351 18.2669L20.919 17.383ZM22.6853 19.1508L30.9349 10.9012L32.7027 12.669L26.587 18.7847H37.5V21.2847H26.587L32.7027 27.4004L30.9349 29.1681L22.6853 20.9186L21.8014 20.0347L22.6853 19.1508ZM9.13345 29.1681L17.383 20.9186L18.2669 20.0347L17.383 19.1508L9.13345 10.9012L7.36568 12.669L13.4814 18.7847H2.50162V21.2847H13.4814L7.36568 27.4004L9.13345 29.1681ZM19.1513 22.6864L10.9017 30.9359L12.6695 32.7037L18.7851 26.588V37.5H21.2851V26.588L27.4008 32.7037L29.1686 30.9359L20.919 22.6864L20.0351 21.8025L19.1513 22.6864Z" fill="#0C111D"/>
</g>
<path d="M79.717 27.4968C79.9847 26.7652 80.1246 25.9489 80.1246 25.07C80.1246 21.4925 77.8071 18.95 73.9821 18.95C70.1346 18.95 67.8171 21.4925 67.8171 25.07C67.8171 25.9489 67.9569 26.7652 68.2249 27.4968H72.0152C71.6279 26.9241 71.4171 26.1098 71.4171 25.07C71.4171 22.8425 72.3846 21.65 73.9821 21.65C75.5571 21.65 76.5246 22.8425 76.5246 25.07C76.5246 26.1098 76.3137 26.9241 75.9287 27.4968H79.717Z" fill="#0C111D"/>
<path d="M60.0767 14.36C62.2142 14.36 63.0242 15.6425 63.3167 17.3975H67.3667C66.9842 13.6625 64.6442 11.0525 60.2567 11.0525C55.1717 11.0525 52.4492 14.6075 52.4492 19.445C52.4492 24.305 55.1717 27.86 60.2567 27.86C64.6667 27.86 67.0067 25.25 67.3667 21.47H63.3167C63.0467 23.27 62.2367 24.5525 60.0767 24.5525C57.3992 24.5525 56.4992 22.4825 56.4992 19.445C56.4992 16.43 57.3992 14.36 60.0767 14.36Z" fill="#0C111D"/>
<path d="M92.0747 19.715C92.0747 17.0825 90.5672 15.62 88.3397 15.62C86.2922 15.62 85.1672 16.5875 84.5597 17.645H84.5147V15.775H80.9147V27.5H84.5147V20.84C84.5147 19.2425 85.3022 18.545 86.6747 18.545C87.8672 18.545 88.4747 19.13 88.4747 20.8625V27.5H92.0747V19.715Z" fill="#0C111D"/>
<path d="M92.132 15.98H95.732L98.072 23.495H98.117L100.457 15.98H104.057L100.075 27.5H96.1145L92.132 15.98Z" fill="#0C111D"/>
<path fill-rule="evenodd" clip-rule="evenodd" d="M111.41 24.35C111.105 24.7868 110.533 25.16 109.544 25.16C108.262 25.16 107.069 24.305 107.069 22.685H110.333V22.6833H115.333V22.685H115.349C115.349 18.5 113.347 15.62 109.409 15.62C105.742 15.62 103.469 18.23 103.469 21.74C103.469 25.34 105.787 27.86 109.612 27.86C112.585 27.86 114.358 26.4774 115.067 24.35H111.41ZM107.069 20.5025C107.069 18.905 108.037 18.095 109.409 18.095C110.782 18.095 111.749 18.905 111.749 20.5025H107.069Z" fill="#0C111D"/>
<path d="M122.585 15.7775C122.9 15.7775 123.17 15.7775 123.575 15.8675V19.0175H123.53C121.685 18.68 119.727 19.6925 119.727 22.145V27.5H116.127V15.775H119.727V17.87H119.772C120.335 16.5875 121.325 15.7775 122.585 15.7775Z" fill="#0C111D"/>
<path fill-rule="evenodd" clip-rule="evenodd" d="M135.186 15.775H131.586V17.1275H131.541C131.091 16.52 130.078 15.62 128.391 15.62C125.443 15.62 123.553 17.96 123.553 21.29C123.553 24.62 125.443 26.96 128.391 26.96C130.078 26.96 131.091 26.06 131.541 25.4525H131.586V26.1275C131.586 28.04 131.046 28.895 129.426 28.895C128.166 28.895 127.603 28.3775 127.378 27.7475H123.778C124.183 29.5925 125.871 31.4825 129.516 31.4825C133.003 31.4825 135.186 30.1775 135.186 26.375V15.775ZM131.518 21.29C131.518 23.1575 130.798 24.26 129.336 24.26C127.873 24.26 127.153 23.1575 127.153 21.29C127.153 19.4225 127.873 18.32 129.336 18.32C130.798 18.32 131.518 19.4225 131.518 21.29Z" fill="#0C111D"/>
<path fill-rule="evenodd" clip-rule="evenodd" d="M142.054 25.16C143.043 25.16 143.615 24.7868 143.92 24.35H147.577C146.868 26.4774 145.095 27.86 142.122 27.86C138.297 27.86 135.979 25.34 135.979 21.74C135.979 18.23 138.252 15.62 141.919 15.62C145.857 15.62 147.859 18.5 147.859 22.685H147.833V22.6833H142.833V22.685H139.579C139.579 24.305 140.772 25.16 142.054 25.16ZM141.919 18.095C140.547 18.095 139.579 18.905 139.579 20.5025H144.259C144.259 18.905 143.292 18.095 141.919 18.095Z" fill="#0C111D"/>
<path d="M159.797 19.715C159.797 17.0825 158.29 15.62 156.062 15.62C154.015 15.62 152.89 16.5875 152.282 17.645H152.237V15.775H148.637V27.5H152.237V20.84C152.237 19.2425 153.025 18.545 154.397 18.545C155.59 18.545 156.197 19.13 156.197 20.8625V27.5H159.797V19.715Z" fill="#0C111D"/>
<path d="M168.467 20.2775C168.354 19.355 167.859 18.32 166.419 18.32C164.934 18.32 164.102 19.58 164.102 21.74C164.102 23.9 164.912 25.16 166.419 25.16C167.859 25.16 168.354 24.1925 168.467 23.1575H171.999C171.819 25.88 169.749 27.86 166.442 27.86C162.797 27.86 160.502 25.34 160.502 21.74C160.502 18.1625 162.797 15.62 166.352 15.62C169.704 15.62 171.707 17.6 171.999 20.2775H168.467Z" fill="#0C111D"/>
<path fill-rule="evenodd" clip-rule="evenodd" d="M180.143 24.35C179.838 24.7868 179.266 25.16 178.277 25.16C176.995 25.16 175.802 24.305 175.802 22.685H179.5V22.6833H184.082C184.082 18.4992 182.079 15.62 178.142 15.62C174.475 15.62 172.202 18.23 172.202 21.74C172.202 25.34 174.52 27.86 178.345 27.86C181.318 27.86 183.091 26.4774 183.801 24.35H180.143ZM175.802 20.5025C175.802 18.905 176.77 18.095 178.142 18.095C179.515 18.095 180.482 18.905 180.482 20.5025H175.802Z" fill="#0C111D"/>
<defs>
<linearGradient id="paint0_linear_3204_896" x1="20" y1="4.96706e-07" x2="21.6667" y2="40" gradientUnits="userSpaceOnUse">
<stop stop-color="white" stop-opacity="0"/>
<stop offset="1" stop-color="white" stop-opacity="0.12"/>
</linearGradient>
<clipPath id="clip0_3204_896">
<rect width="40" height="40" rx="12" fill="white"/>
</clipPath>
</defs>
</svg>
